<svg xmlns="http://www.w3.org/2000/svg" width="23.46" height="31.25" viewBox="0 0 23.46 31.25"><defs><style>.a,.c{fill:none;}.a{stroke:#919191;stroke-linecap:round;stroke-linejoin:round;stroke-width:1.3px;}.b{stroke:none;}</style></defs><g transform="translate(0.65 0.65)"><g transform="translate(9.107 16.856)"><g class="a"><ellipse class="b" cx="6.202" cy="6.222" rx="6.202" ry="6.222"/><ellipse class="c" cx="6.202" cy="6.222" rx="6.852" ry="6.872"/></g><path class="a" d="M121.728,140.386l-2.587-1.5v-3" transform="translate(-112.94 -132.666)"/></g><path class="a" d="M127.244,135.546V126.36a3.159,3.159,0,0,0-3.153-3.164H110.279a3.159,3.159,0,0,0-3.153,3.164v17.588a3.158,3.158,0,0,0,3.153,3.164h4.106" transform="translate(-107.126 -120.353)"/><line class="a" x2="11.214" transform="translate(4.452 7.621)"/><line class="a" x2="8.482" transform="translate(4.452 11.678)"/><line class="a" x2="4.528" transform="translate(4.452 15.736)"/><path class="a" d="M119.88,124.229v-1.874a.9.9,0,0,0-.82-.958h-6.8a.9.9,0,0,0-.82.958v1.885" transform="translate(-105.602 -121.397)"/><path class="a" d="M117.677,123.233" transform="translate(-103.399 -120.34)"/></g></svg>