<svg xmlns="http://www.w3.org/2000/svg" width="22.567" height="21.18" viewBox="0 0 22.567 21.18"><defs><style>.a{fill:none;stroke:#919191;stroke-linecap:round;stroke-linejoin:round;stroke-width:1.5px;}</style></defs><g transform="translate(0.75 0.75)"><path class="a" d="M781.84,358.431" transform="translate(-762.4 -358.191)"/><path class="a" d="M744.982,369.025v4.746a4.1,4.1,0,0,1-4.1,4.1H729.641a4.1,4.1,0,0,1-4.1-4.1V362.531a4.1,4.1,0,0,1,4.1-4.1h6.935" transform="translate(-725.542 -358.191)"/><path class="a" d="M752.714,370.114l-3.13.19.323-3,8.883-8.983a1.985,1.985,0,0,1,2.815-.008h0a1.984,1.984,0,0,1,.008,2.8Z" transform="translate(-741.282 -357.735)"/></g></svg>