<svg xmlns="http://www.w3.org/2000/svg" width="26.277" height="24.653" viewBox="0 0 26.277 24.653"><defs><style>.a{fill:none;stroke:white;stroke-linecap:round;stroke-linejoin:round;stroke-width:1.5px;}</style></defs><g transform="translate(0.75 0.75)"><path class="a" d="M781.84,358.431" transform="translate(-758.97 -358.148)"/><path class="a" d="M748.413,370.895v5.584a4.823,4.823,0,0,1-4.823,4.823H730.365a4.823,4.823,0,0,1-4.823-4.823V363.254a4.823,4.823,0,0,1,4.823-4.823h8.159" transform="translate(-725.542 -358.148)"/><path class="a" d="M753.266,372.3l-3.682.223.379-3.525,10.45-10.568a2.336,2.336,0,0,1,3.312-.009h0a2.335,2.335,0,0,1,.009,3.293Z" transform="translate(-739.817 -357.735)"/></g></svg>