<svg xmlns="http://www.w3.org/2000/svg" width="19.748" height="22.95" viewBox="0 0 19.748 22.95"><defs><style>.a,.b{fill:none;stroke:#fff;stroke-width:1.5px;}.a{stroke-miterlimit:10;}.b{stroke-linecap:round;stroke-linejoin:round;}</style></defs><g transform="translate(0.75 0.75)"><g transform="translate(0 0)"><rect class="a" width="18.248" height="3.202" rx="1.601" transform="translate(0 3.202)"/><path class="a" d="M711.924,406.861v13.444a1.606,1.606,0,0,0,1.6,1.6h11.782a1.606,1.606,0,0,0,1.6-1.6V406.861" transform="translate(-710.292 -400.457)"/><path class="a" d="M3.2,0H6.743a3.2,3.2,0,0,1,3.2,3.2v0a0,0,0,0,1,0,0H0a0,0,0,0,1,0,0v0A3.2,3.2,0,0,1,3.2,0Z" transform="translate(4.151)"/><g transform="translate(6.879 10.361)"><line class="b" y2="6.892" transform="translate(4.49)"/><line class="b" y2="6.892" transform="translate(0)"/></g></g></g></svg>